# xmcd
#
# Track frame offsets:
#	150
#	12896
#	24137
#	36873
#	56788
#	68221
#	82977
#	92802
#	109053
#	119706
#	127756
#	143208
#	157723
#	173218
#	191792
#	205976
#
# Disc length: 2935
#
# Revision: 1
# Processed by: cddbd v1.5.1PL0 Copyright (c) Steve Scherf et al.
# Submitted via: VisiTrax 2.9.10.228 - For more info visit www.synapsa.com
# Normalized: r0:DSETVAR1
#
DISCID=d30b7510
DTITLE=Various Artist - Legends Of Country
DYEAR=1900
DGENRE=Country
TTITLE0=Ernest Tubb - Waltz Across  Texas
TTITLE1=Ernest Tubb - Thanks A Lot
TTITLE2=Carl Perkins - Rave On
TTITLE3=Carl Perkins - Matchbox
TTITLE4=Jerry Lee Lewis - Crazy Arms
TTITLE5=Jerry Lee Lewis - You Win Agian
TTITLE6=Faron Young - Hello Walls
TTITLE7=Faron Young - Live Fast, Love Hard, Die Young
TTITLE8=Johnny Paycheck - Thake This Job And Shove It
TTITLE9=Johnny Paycheck - I'm Ragged But I'm Right
TTITLE10=Razzy Bailey - Midnight Hauler
TTITLE11=Razzy Bailey - She Left Love All Over Me
TTITLE12=Bobby Bare - Detroit City
TTITLE13=Bobby Bare - Marie Laveau
TTITLE14=Freddy Fender - Before The Next Teardrop Falls
TTITLE15=Freddy Fender - Can't Stop loving You
EXTD=
EXTT0=
EXTT1=
EXTT2=
EXTT3=
EXTT4=
EXTT5=
EXTT6=
EXTT7=
EXTT8=
EXTT9=
EXTT10=
EXTT11=
EXTT12=
EXTT13=
EXTT14=
EXTT15=
PLAYORDER=
